# xmcd
# 
# Track frame offsets:
#     150
#     11292
#     23137
#     34910
#     48937
#     59017
#     71355
#     86667
#     98757
#     112530
#     126090
#     139391
#     152095
#     162725
#     174957
#     185172
#     196703
#     208651
#     221583
#     231816
#     242728
#     254713
#     268021
#     281063
#     294456
#     306573
#     316338
# 
# Disc length: 4394
# 
# Revision: 1
# Processed by: cddbd v1.5.2PL0 Copyright (c) Steve Scherf et al.
# Submitted via: fre:ac v1.0.27
# 
DISCID=9011281b
DTITLE=B. B. KING - THE COMPLETE RPM - KENT RECORDING BOX
DYEAR=2015
DGENRE=Blues
TTITLE0=Everything I Do Is Wrong - take 2
TTITLE1=Whole Lotta Meat - take 10
TTITLE2=Everyday I Have The Blues - take 6
TTITLE3=I Was Blind
TTITLE4=Jump With You Baby - take 2
TTITLE5=Shut Your Mouth - take 1
TTITLE6=I'm Cracking Up Over You - take 1
TTITLE7=Dark Is The Night Pt. 1 (aka The Blues Has Got Me) - alt. take
TTITLE8=Sweet Little Angel - take 2
TTITLE9=Bad Luck - take 1
TTITLE10=Troubles Troubles Troubles (aka Troubles Don't Last) - take 5
TTITLE11=Why I Sing The Blues - take 2
TTITLE12=Early In The Morning (aka Early Every Morning) - take 2
TTITLE13=Don't Look Now, But I've Got The Blues - take 3
TTITLE14=Early In The Morning (aka Early Every Morning) - 1959 version
TTITLE15=I Stay In The Mood - take 5
TTITLE16=(I'm Gonna) Quit My Baby - take 2
TTITLE17=Be Careful With A Fool - take 11
TTITLE18=Don't Keep Me Waiting
TTITLE19=Don't Break Your Promise
TTITLE20=You Know I Go For You - alt. take
TTITLE21=Yesterday
TTITLE22=I Love You So
TTITLE23=You've Been An Angel - take 2
TTITLE24=If I Lost You
TTITLE25=Why Not
TTITLE26=Tomorrow Is Another Day
EXTD=
EXTT0=
EXTT1=
EXTT2=
EXTT3=
EXTT4=
EXTT5=
EXTT6=
EXTT7=
EXTT8=
EXTT9=
EXTT10=
EXTT11=
EXTT12=
EXTT13=
EXTT14=
EXTT15=
EXTT16=
EXTT17=
EXTT18=
EXTT19=
EXTT20=
EXTT21=
EXTT22=
EXTT23=
EXTT24=
EXTT25=
EXTT26=
PLAYORDER=
